<svg width="216" height="64" viewBox="0 0 216 64" fill="none" xmlns="http://www.w3.org/2000/svg">
<path d="M208 0H8C3.58172 0 0 3.58172 0 8V56C0 60.4183 3.58172 64 8 64H208C212.418 64 216 60.4183 216 56V8C216 3.58172 212.418 0 208 0Z" fill="black"/>
<path d="M208 1.28C209.782 1.28 211.492 1.988 212.752 3.24824C214.012 4.50849 214.72 6.21775 214.72 8V56C214.72 57.7823 214.012 59.4915 212.752 60.7518C211.492 62.012 209.782 62.72 208 62.72H8C6.21775 62.72 4.50849 62.012 3.24824 60.7518C1.988 59.4915 1.28 57.7823 1.28 56V8C1.28 6.21775 1.988 4.50849 3.24824 3.24824C4.50849 1.988 6.21775 1.28 8 1.28H208ZM208 0H8C5.87827 0 3.84344 0.842855 2.34315 2.34315C0.842855 3.84344 0 5.87827 0 8V56C0 58.1217 0.842855 60.1566 2.34315 61.6569C3.84344 63.1571 5.87827 64 8 64H208C210.122 64 212.157 63.1571 213.657 61.6569C215.157 60.1566 216 58.1217 216 56V8C216 5.87827 215.157 3.84344 213.657 2.34315C212.157 0.842855 210.122 0 208 0Z" fill="#A6A6A6"/>
<path d="M51.3806 30.9008C51.3364 25.9874 55.4037 23.597 55.5897 23.4857C53.2862 20.1272 49.7159 19.6684 48.4612 19.6318C45.4625 19.3162 42.5538 21.4261 41.0263 21.4261C39.4682 21.4261 37.116 19.6623 34.5807 19.7141C31.3183 19.7644 28.2663 21.6533 26.5924 24.5864C23.1379 30.5669 25.7143 39.3556 29.024 44.1898C30.6796 46.5573 32.6141 49.2008 35.1463 49.1078C37.6236 49.0057 38.549 47.5284 41.5385 47.5284C44.5006 47.5284 45.3695 49.1078 47.952 49.0483C50.6107 49.0057 52.2846 46.6701 53.8823 44.2813C55.7955 41.5677 56.5639 38.8952 56.5944 38.758C56.5319 38.7367 51.4309 36.7899 51.3806 30.9008Z" fill="white"/>
<path d="M46.5023 16.4517C47.8347 14.7854 48.7463 12.5185 48.4932 10.218C46.5648 10.3034 44.153 11.5519 42.7642 13.1816C41.5355 14.6177 40.4378 16.9715 40.7214 19.1851C42.8877 19.3467 45.1119 18.092 46.5023 16.4517Z" fill="white"/>
<path d="M87.2317 48.7676H83.7695L81.8731 42.8084H75.2812L73.4746 48.7676H70.104L76.6349 28.4797H80.6687L87.2317 48.7676ZM81.3014 40.3082L79.5863 35.0106C79.4049 34.4694 79.065 33.195 78.5634 31.1887H78.5024C78.3027 32.0516 77.981 33.3261 77.5389 35.0106L75.8544 40.3082H81.3014V40.3082Z" fill="white"/>
<path d="M104.027 41.2732C104.027 43.7612 103.354 45.7278 102.01 47.1715C100.805 48.4566 99.3098 49.0984 97.5246 49.0984C95.5976 49.0984 94.2134 48.4063 93.3704 47.0221H93.3094V54.7284H90.0592V38.9545C90.0592 37.3903 90.018 35.7851 89.9387 34.1386H92.7972L92.9786 36.4574H93.0395C94.1235 34.7103 95.7684 33.8383 97.9758 33.8383C99.7016 33.8383 101.142 34.5197 102.295 35.8842C103.45 37.2501 104.027 39.0459 104.027 41.2732ZM100.715 41.3921C100.715 39.9683 100.395 38.7944 99.7519 37.8706C99.0491 36.9071 98.1054 36.4253 96.9224 36.4253C96.1205 36.4253 95.3918 36.6937 94.7409 37.2227C94.0884 37.7562 93.6615 38.4529 93.4618 39.3158C93.3612 39.7182 93.3109 40.0475 93.3109 40.3067V42.7459C93.3109 43.81 93.6371 44.7079 94.2896 45.4412C94.9421 46.1745 95.7897 46.5403 96.8325 46.5403C98.0566 46.5403 99.0095 46.0677 99.6909 45.1256C100.374 44.182 100.715 42.938 100.715 41.3921Z" fill="white"/>
<path d="M120.853 41.2732C120.853 43.7612 120.18 45.7278 118.834 47.1715C117.631 48.4566 116.136 49.0984 114.351 49.0984C112.424 49.0984 111.04 48.4063 110.198 47.0221H110.137V54.7284H106.887V38.9545C106.887 37.3903 106.846 35.7851 106.766 34.1386H109.625L109.806 36.4574H109.867C110.95 34.7103 112.595 33.8383 114.804 33.8383C116.528 33.8383 117.968 34.5197 119.124 35.8842C120.275 37.2501 120.853 39.0459 120.853 41.2732ZM117.542 41.3921C117.542 39.9683 117.22 38.7944 116.577 37.8706C115.874 36.9071 114.933 36.4253 113.749 36.4253C112.945 36.4253 112.218 36.6937 111.566 37.2227C110.913 37.7562 110.488 38.4529 110.288 39.3158C110.189 39.7182 110.137 40.0475 110.137 40.3067V42.7459C110.137 43.81 110.463 44.7079 111.113 45.4412C111.765 46.1729 112.613 46.5403 113.659 46.5403C114.883 46.5403 115.836 46.0677 116.517 45.1256C117.2 44.182 117.542 42.938 117.542 41.3921Z" fill="white"/>
<path d="M139.665 43.0783C139.665 44.804 139.066 46.2081 137.863 47.292C136.541 48.4765 134.701 49.068 132.337 49.068C130.154 49.068 128.404 48.6472 127.079 47.8042L127.832 45.0952C129.259 45.958 130.825 46.391 132.53 46.391C133.755 46.391 134.707 46.1135 135.392 45.5617C136.073 45.0098 136.413 44.2689 136.413 43.3451C136.413 42.5218 136.133 41.8282 135.57 41.2657C135.011 40.7031 134.076 40.1802 132.771 39.697C129.219 38.3722 127.445 36.4315 127.445 33.8795C127.445 32.2117 128.067 30.8443 129.312 29.7802C130.553 28.7145 132.209 28.1825 134.279 28.1825C136.125 28.1825 137.659 28.5042 138.883 29.146L138.07 31.7955C136.927 31.1735 135.634 30.8626 134.188 30.8626C133.044 30.8626 132.151 31.1446 131.511 31.7056C130.969 32.2071 130.698 32.8185 130.698 33.5426C130.698 34.3445 131.007 35.0076 131.629 35.529C132.171 36.0108 133.154 36.5321 134.581 37.0947C136.326 37.7975 137.609 38.6192 138.433 39.5613C139.255 40.5004 139.665 41.6758 139.665 43.0783Z" fill="white"/>
<path d="M150.411 36.5779H146.828V43.6805C146.828 45.487 147.46 46.3895 148.725 46.3895C149.306 46.3895 149.787 46.3392 150.169 46.2386L150.259 48.7067C149.618 48.946 148.775 49.0665 147.731 49.0665C146.447 49.0665 145.444 48.6747 144.72 47.8926C143.999 47.109 143.636 45.7949 143.636 43.9488V36.5748H141.502V34.1356H143.636V31.4571L146.828 30.4936V34.1356H150.411V36.5779Z" fill="white"/>
<path d="M166.575 41.3329C166.575 43.5815 165.932 45.4276 164.648 46.8713C163.302 48.3577 161.515 49.0986 159.288 49.0986C157.142 49.0986 155.433 48.3867 154.158 46.9628C152.884 45.5389 152.247 43.7416 152.247 41.5753C152.247 39.3083 152.902 37.4515 154.218 36.0078C155.53 34.5626 157.302 33.84 159.529 33.84C161.675 33.84 163.403 34.5519 164.706 35.9773C165.953 37.36 166.575 39.1452 166.575 41.3329ZM163.203 41.4381C163.203 40.0889 162.915 38.9318 162.331 37.9668C161.65 36.799 160.675 36.2167 159.413 36.2167C158.107 36.2167 157.114 36.8006 156.433 37.9668C155.849 38.9333 155.561 40.1087 155.561 41.499C155.561 42.8482 155.849 44.0053 156.433 44.9688C157.136 46.1365 158.117 46.7189 159.384 46.7189C160.625 46.7189 161.599 46.1243 162.302 44.9383C162.901 43.955 163.203 42.7857 163.203 41.4381Z" fill="white"/>
<path d="M177.14 36.997C176.818 36.9376 176.475 36.9071 176.115 36.9071C174.972 36.9071 174.088 37.3385 173.466 38.2029C172.924 38.9651 172.653 39.9286 172.653 41.0918V48.7676H169.404L169.435 38.7456C169.435 37.0595 169.394 35.5244 169.313 34.1401H172.144L172.263 36.9391H172.353C172.696 35.9771 173.237 35.2027 173.978 34.6219C174.702 34.099 175.484 33.8383 176.327 33.8383C176.627 33.8383 176.899 33.8596 177.14 33.8977V36.997Z" fill="white"/>
<path d="M191.676 40.7611C191.676 41.3434 191.638 41.8343 191.557 42.2353H181.806C181.844 43.6805 182.315 44.7857 183.221 45.548C184.043 46.2294 185.105 46.5709 186.41 46.5709C187.854 46.5709 189.171 46.3407 190.356 45.8788L190.865 48.1351C189.48 48.7388 187.846 49.0391 185.96 49.0391C183.692 49.0391 181.911 48.3713 180.616 47.0374C179.323 45.7035 178.675 43.9122 178.675 41.6651C178.675 39.4592 179.277 37.6222 180.483 36.1571C181.745 34.593 183.451 33.8109 185.598 33.8109C187.706 33.8109 189.302 34.593 190.386 36.1571C191.244 37.3996 191.676 38.9363 191.676 40.7611ZM188.576 39.918C188.598 38.9546 188.386 38.1222 187.945 37.4194C187.383 36.5154 186.518 36.0641 185.355 36.0641C184.293 36.0641 183.428 36.5047 182.768 37.3889C182.227 38.0917 181.905 38.9348 181.806 39.9165H188.576V39.918Z" fill="white"/>
<path d="M80.2271 15.9989C80.2271 17.7933 79.689 19.144 78.6142 20.051C77.6187 20.888 76.204 21.3072 74.3715 21.3072C73.4629 21.3072 72.6855 21.2676 72.0345 21.1883V11.3843C72.8836 11.2471 73.7983 11.177 74.7862 11.177C76.5317 11.177 77.8474 11.5566 78.7346 12.3158C79.7286 13.1741 80.2271 14.4013 80.2271 15.9989ZM78.5426 16.0431C78.5426 14.88 78.2346 13.9881 77.6187 13.3661C77.0028 12.7457 76.1034 12.4347 74.9188 12.4347C74.4158 12.4347 73.9874 12.4682 73.6322 12.5383V19.9916C73.8288 20.0221 74.1886 20.0358 74.7115 20.0358C75.9341 20.0358 76.8778 19.6958 77.5425 19.0159C78.2072 18.336 78.5426 17.3451 78.5426 16.0431Z" fill="white"/>
<path d="M89.1592 17.5661C89.1592 18.6713 88.8436 19.5769 88.2125 20.2873C87.5508 21.0175 86.6743 21.3819 85.5797 21.3819C84.5247 21.3819 83.6847 21.0328 83.0582 20.3315C82.4331 19.6318 82.1206 18.7491 82.1206 17.685C82.1206 16.5721 82.4423 15.6589 83.0887 14.95C83.735 14.2412 84.604 13.886 85.6986 13.886C86.7535 13.886 87.6011 14.2351 88.243 14.9348C88.8528 15.6147 89.1592 16.4928 89.1592 17.5661ZM87.5021 17.6179C87.5021 16.9548 87.3588 16.3861 87.0737 15.912C86.7383 15.3388 86.2611 15.0522 85.6407 15.0522C84.9988 15.0522 84.511 15.3388 84.1756 15.912C83.889 16.3861 83.7472 16.9639 83.7472 17.6469C83.7472 18.31 83.8905 18.8787 84.1756 19.3528C84.5217 19.926 85.0034 20.2126 85.6254 20.2126C86.2352 20.2126 86.7139 19.9214 87.0584 19.3375C87.3542 18.8543 87.5021 18.2811 87.5021 17.6179Z" fill="white"/>
<path d="M101.136 14.0322L98.887 21.2187H97.4235L96.4921 18.098C96.2558 17.319 96.0637 16.5446 95.9143 15.7762H95.8853C95.7466 16.5659 95.5545 17.3388 95.3075 18.098L94.3181 21.2187H92.8379L90.7234 14.0322H92.3653L93.1778 17.4486C93.3745 18.2566 93.5361 19.0265 93.6657 19.7552H93.6946C93.8135 19.1545 94.0102 18.3892 94.2876 17.4639L95.3075 14.0338H96.6094L97.5866 17.3907C97.8229 18.2093 98.015 18.9975 98.1629 19.7567H98.2071C98.3154 19.0173 98.4785 18.2291 98.6949 17.3907L99.567 14.0338H101.136V14.0322Z" fill="white"/>
<path d="M109.418 21.2187H107.82V17.1026C107.82 15.8342 107.339 15.2 106.372 15.2C105.898 15.2 105.515 15.3738 105.218 15.7229C104.924 16.072 104.774 16.4836 104.774 16.9547V21.2172H103.177V16.0857C103.177 15.4546 103.157 14.7701 103.119 14.0292H104.523L104.598 15.1527H104.642C104.828 14.8036 105.105 14.5155 105.47 14.2853C105.903 14.017 106.387 13.8813 106.918 13.8813C107.589 13.8813 108.147 14.0978 108.59 14.5323C109.142 15.0643 109.418 15.8586 109.418 16.9135V21.2187V21.2187Z" fill="white"/>
<path d="M113.824 21.2188H112.228V10.7348H113.824V21.2188Z" fill="white"/>
<path d="M123.23 17.5661C123.23 18.6713 122.914 19.5769 122.283 20.2873C121.622 21.0175 120.744 21.3819 119.651 21.3819C118.594 21.3819 117.754 21.0328 117.129 20.3315C116.504 19.6318 116.191 18.7491 116.191 17.685C116.191 16.5721 116.513 15.6589 117.16 14.95C117.806 14.2412 118.675 13.886 119.768 13.886C120.824 13.886 121.67 14.2351 122.314 14.9348C122.924 15.6147 123.23 16.4928 123.23 17.5661ZM121.571 17.6179C121.571 16.9548 121.428 16.3861 121.143 15.912C120.809 15.3388 120.33 15.0522 119.712 15.0522C119.068 15.0522 118.58 15.3388 118.246 15.912C117.96 16.3861 117.818 16.9639 117.818 17.6469C117.818 18.31 117.961 18.8787 118.246 19.3528C118.593 19.926 119.074 20.2126 119.696 20.2126C120.306 20.2126 120.783 19.9214 121.128 19.3375C121.425 18.8543 121.571 18.2811 121.571 17.6179Z" fill="white"/>
<path d="M130.962 21.2188H129.527L129.409 20.391H129.364C128.873 21.0511 128.174 21.3819 127.265 21.3819C126.587 21.3819 126.038 21.1639 125.625 20.7309C125.25 20.3376 125.062 19.8482 125.062 19.2674C125.062 18.3893 125.428 17.72 126.164 17.2566C126.899 16.7932 127.933 16.566 129.264 16.5767V16.4425C129.264 15.4958 128.767 15.0232 127.771 15.0232C127.062 15.0232 126.437 15.2016 125.898 15.5553L125.573 14.5064C126.241 14.0933 127.065 13.886 128.038 13.886C129.916 13.886 130.858 14.8769 130.858 16.8587V19.5052C130.858 20.2233 130.893 20.7949 130.962 21.2188ZM129.303 18.7491V17.6408C127.541 17.6103 126.66 18.0935 126.66 19.089C126.66 19.4641 126.761 19.7446 126.966 19.9321C127.172 20.1196 127.434 20.2126 127.747 20.2126C128.098 20.2126 128.425 20.1013 128.724 19.8803C129.024 19.6577 129.209 19.3756 129.277 19.0296C129.294 18.9518 129.303 18.8573 129.303 18.7491Z" fill="white"/>
<path d="M140.04 21.2188H138.622L138.548 20.0647H138.503C138.051 20.9428 137.279 21.3819 136.195 21.3819C135.329 21.3819 134.608 21.0419 134.037 20.362C133.465 19.6821 133.18 18.7994 133.18 17.7155C133.18 16.5523 133.489 15.6102 134.111 14.8906C134.713 14.2198 135.451 13.8844 136.329 13.8844C137.294 13.8844 137.97 14.2091 138.354 14.8601H138.384V10.7348H139.984V19.2826C139.984 19.9824 140.002 20.6272 140.04 21.2188ZM138.384 18.1881V16.9898C138.384 16.7825 138.369 16.6148 138.34 16.4867C138.25 16.1026 138.057 15.7794 137.762 15.5187C137.465 15.258 137.107 15.1269 136.694 15.1269C136.098 15.1269 135.631 15.3632 135.288 15.8373C134.948 16.3114 134.776 16.9166 134.776 17.656C134.776 18.3664 134.939 18.9427 135.267 19.3863C135.613 19.8589 136.079 20.0952 136.663 20.0952C137.188 20.0952 137.607 19.8985 137.926 19.5037C138.234 19.1393 138.384 18.7003 138.384 18.1881Z" fill="white"/>
<path d="M153.705 17.5661C153.705 18.6713 153.389 19.5769 152.758 20.2873C152.096 21.0175 151.221 21.3819 150.125 21.3819C149.072 21.3819 148.232 21.0328 147.603 20.3315C146.978 19.6318 146.666 18.7491 146.666 17.685C146.666 16.5721 146.988 15.6589 147.634 14.95C148.28 14.2412 149.149 13.886 150.245 13.886C151.299 13.886 152.148 14.2351 152.788 14.9348C153.398 15.6147 153.705 16.4928 153.705 17.5661ZM152.049 17.6179C152.049 16.9548 151.906 16.3861 151.621 15.912C151.284 15.3388 150.808 15.0522 150.186 15.0522C149.546 15.0522 149.058 15.3388 148.721 15.912C148.434 16.3861 148.293 16.9639 148.293 17.6469C148.293 18.31 148.436 18.8787 148.721 19.3528C149.067 19.926 149.549 20.2126 150.171 20.2126C150.781 20.2126 151.261 19.9214 151.605 19.3375C151.9 18.8543 152.049 18.2811 152.049 17.6179Z" fill="white"/>
<path d="M162.295 21.2187H160.699V17.1026C160.699 15.8342 160.217 15.2 159.249 15.2C158.775 15.2 158.392 15.3738 158.096 15.7229C157.8 16.072 157.653 16.4836 157.653 16.9547V21.2172H156.053V16.0857C156.053 15.4546 156.035 14.7701 155.997 14.0292H157.4L157.474 15.1527H157.518C157.706 14.8036 157.983 14.5155 158.346 14.2853C158.781 14.017 159.264 13.8813 159.796 13.8813C160.465 13.8813 161.023 14.0978 161.467 14.5323C162.02 15.0643 162.295 15.8586 162.295 16.9135V21.2187V21.2187Z" fill="white"/>
<path d="M173.047 15.229H171.288V18.7201C171.288 19.6074 171.6 20.051 172.219 20.051C172.506 20.051 172.743 20.0266 172.931 19.9763L172.972 21.1883C172.657 21.3072 172.242 21.3666 171.731 21.3666C171.1 21.3666 170.609 21.1745 170.254 20.7904C169.897 20.4062 169.72 19.7598 169.72 18.8527V15.229H168.67V14.0323H169.72V12.7151L171.286 12.2426V14.0308H173.045V15.229H173.047Z" fill="white"/>
<path d="M181.505 21.2188H179.906V17.1331C179.906 15.8449 179.424 15.2001 178.459 15.2001C177.718 15.2001 177.212 15.5736 176.935 16.3206C176.887 16.4776 176.86 16.6697 176.86 16.8953V21.2172H175.264V10.7348H176.86V15.0659H176.891C177.394 14.2777 178.115 13.8844 179.049 13.8844C179.711 13.8844 180.258 14.1009 180.693 14.5354C181.234 15.0766 181.505 15.8815 181.505 16.9456V21.2188V21.2188Z" fill="white"/>
<path d="M190.23 17.2855C190.23 17.5721 190.209 17.813 190.17 18.0097H185.379C185.4 18.7201 185.629 19.2613 186.073 19.6363C186.478 19.9717 187.001 20.1394 187.641 20.1394C188.35 20.1394 188.997 20.0266 189.579 19.7994L189.829 20.9092C189.148 21.205 188.346 21.3529 187.417 21.3529C186.304 21.3529 185.428 21.0251 184.794 20.3696C184.156 19.714 183.841 18.8344 183.841 17.7307C183.841 16.6468 184.135 15.7443 184.728 15.0247C185.347 14.2564 186.184 13.8722 187.24 13.8722C188.274 13.8722 189.059 14.2564 189.59 15.0247C190.018 15.6345 190.23 16.3891 190.23 17.2855ZM188.705 16.8724C188.718 16.3983 188.612 15.9897 188.396 15.6452C188.118 15.2015 187.696 14.979 187.125 14.979C186.603 14.979 186.178 15.1954 185.853 15.6299C185.588 15.976 185.431 16.3891 185.379 16.8724H188.705Z" fill="white"/>
</svg>
