<?xml version="1.0" encoding="UTF-8"?>
<!DOCTYPE svg PUBLIC "-//W3C//DTD SVG 1.1//EN" "http://www.w3.org/Graphics/SVG/1.1/DTD/svg11.dtd">
<!-- Creator: CorelDRAW 2019 (64-Bit) -->
<svg xmlns="http://www.w3.org/2000/svg" xml:space="preserve" width="1018px" height="240px" version="1.1" style="shape-rendering:geometricPrecision; text-rendering:geometricPrecision; image-rendering:optimizeQuality; fill-rule:evenodd; clip-rule:evenodd"
viewBox="0 0 1018 240.07"
 xmlns:xlink="http://www.w3.org/1999/xlink"
 xmlns:xodm="http://www.corel.com/coreldraw/odm/2003">
 <defs>
  <style type="text/css">
   <![CDATA[
    .fil0 {fill:black}
    .fil1 {fill:#00AA13}
   ]]>
  </style>
 </defs>
 <g id="Layer_x0020_1">
  <metadata id="CorelCorpID_0Corel-Layer"/>
  <g id="_2076243100384">
   <path class="fil0" d="M611.81 239.19c18.59,1.83 45.27,1.64 58.67,-9.15 7.09,-5.71 10.16,-11.18 12.2,-22.88 2.78,-15.98 1.4,-147.77 1.4,-170.87l-37.13 0.45c0,34.07 0,68.15 0,102.22 0,80.72 4.31,63.2 -35.14,67.09l0 33.14zm-246.44 -168.2c22.13,-5.73 46.02,4.57 48.79,24.74 3.6,26.24 -5.03,41.4 -27.33,46.37 -54.09,12.08 -67.75,-59.12 -21.46,-71.11zm176.97 -0.92c51.06,-9.22 61.65,62.84 17.39,72.69 -23.91,5.32 -42.81,-7.45 -46.97,-26.45 -4.82,-22.07 5.07,-41.81 29.58,-46.24zm-67.56 43.26c3.96,42.44 40.84,65.34 80.99,63.14 40.8,-2.24 71.77,-32.77 68.9,-75.97 -5.96,-89.86 -158.89,-83.5 -149.89,12.83zm-58.63 -61.43c-18.54,-15.39 -51.81,-21.93 -78.37,-8.13 -66,34.31 -42.31,141.6 45.52,131.48 21.26,-2.45 25.73,-11.34 33.25,-15.26 0.49,10.35 -0.33,21.06 -5,29.29 -3.23,5.68 -11.18,11.96 -20.91,14.26 -27.3,6.46 -39.69,-3.41 -55.08,-13.69l-23.1 22.41c2.8,5.1 7.46,8.06 12.97,11.7 34.01,22.51 89.19,22.6 115.87,-14.46 14.72,-20.45 10.74,-54.19 10.74,-81.81 0,-30.45 0,-60.9 0,-91.35l-35.94 0 0.05 15.56zm327.54 40.34c5.68,-35.56 67.84,-33.46 70.98,0l-70.98 0zm107.71 26.36c0,-38.93 -13.29,-71.5 -54.67,-80.19 -91.85,-19.27 -123.88,99.09 -49.78,131.17 35.87,15.53 81.06,4.17 97.02,-19.44 -4.23,-4.66 -19.29,-14.94 -25.23,-17.57 -20.98,23.41 -69.6,17.18 -75.8,-13.96l108.46 -0.01zm104.49 -24.83l61.09 -56.48 -48.39 -1.1 -59.61 55.92 0.32 -91.97 -35.94 -0.14 0.4 176.9 35.14 0 0.11 -38.15 23.45 -20.31 46.32 58.46 39.22 -0.32 -15.14 -20.18 -43.62 -56.94 -3.35 -5.69z"/>
   <circle class="fil1" cx="119.42" cy="120.08" r="45.28"/>
   <path class="fil1" d="M100.18 214.11l0 -0.01c3.14,-10.8 -1.96,-22.06 -12.14,-26.83 -25.26,-11.81 -42.76,-37.46 -42.76,-67.19 0,-40.95 33.19,-74.14 74.14,-74.14 40.95,0 74.14,33.19 74.14,74.14 0,29.52 -17.25,55.01 -42.22,66.94 -10.45,4.99 -15.43,16.91 -11.62,27.86l0 0.01c2.19,6.3 6.51,10.89 12.67,13.46 6.16,2.57 12.46,2.41 18.48,-0.47 40.2,-19.22 67.97,-60.27 67.97,-107.8 0,-65.95 -53.47,-119.42 -119.42,-119.42 -65.95,0 -119.42,53.47 -119.42,119.42 0,47.87 28.17,89.17 68.84,108.21 6.21,2.91 12.7,2.95 18.94,0.12 6.24,-2.82 10.49,-7.73 12.4,-14.3z"/>
  </g>
 </g>
</svg>
