<?xml version="1.0" encoding="UTF-8"?>
<svg width="66" height="37" fill="none" version="1.1" viewBox="0 0 66 37" xmlns="http://www.w3.org/2000/svg">
<title>Ruangguru logo</title>
 <g fill="#27B6C1">
  <path d="m2.0022 2.2194c0.22247 0.148 0.37078 0.37 0.44494 0.592 0.14832 0.222 0.14832 0.518 0.14832 0.888v7.992c0 0.37-0.07416 0.74-0.14832 0.962s-0.22247 0.444-0.44494 0.592-0.44495 0.222-0.66742 0.222-0.74157 0.074-1.1124 0.074c-0.074157 0-0.14831 0-0.14831 0.074-0.074157 0.074-0.074157 0.074-0.074157 0.148v0.666c0 0.074 0 0.148 0.074157 0.148 0.074158 0.074 0.074158 0.074 0.14831 0.074h7.4157c0.14832 0 0.22247-0.074 0.22247-0.222v-0.666c0-0.148-0.07415-0.222-0.22247-0.222h-0.5191c-0.29663 0-0.5191 0-0.81573-0.074-0.22247 0-0.44494-0.148-0.66742-0.222-0.22247-0.148-0.37078-0.296-0.44494-0.518-0.14831-0.222-0.14831-0.518-0.14831-0.888v-4.07c0-0.296 0-0.666 0.07415-1.11 0-0.37 0.07416-0.74 0.14832-1.184 0.07416-0.37 0.14831-0.814 0.29663-1.184 0.14831-0.37 0.29663-0.74 0.44494-1.036 0.14832-0.296 0.37079-0.518 0.66742-0.74 0.22247-0.148 0.5191-0.296 0.81573-0.296 0.5191 0 0.81573 0.148 1.0382 0.444 0.14831 0.296 0.29663 0.74 0.29663 1.332 0 0.148 0.07416 0.222 0.22247 0.222 0.29663 0 0.59326-0.074 0.88989-0.148 0.29662-0.074 0.51912-0.222 0.74162-0.37 0.2224-0.148 0.2966-0.37 0.4449-0.592 0.0742-0.222 0.1483-0.518 0.1483-0.74 0-0.592-0.2225-1.036-0.6674-1.406-0.4449-0.296-1.1124-0.518-2.0764-0.518-0.59326 0-1.0382 0.074-1.409 0.222-0.37079 0.296-0.66741 0.518-0.96404 0.74-0.29663 0.296-0.44495 0.592-0.66742 0.888-0.07416 0.222-0.22247 0.444-0.37079 0.74 0 0.074-0.07415 0.074-0.14831 0.074-0.07416-0.074-0.07416-0.074-0.07416-0.148v-1.036c0-0.592-0.5191-1.11-1.1124-1.11h-3.5595c-0.14831 0.074-0.22247 0.148-0.22247 0.222 0 0.444 0.37079 0.888 0.81573 0.888h0.44494c0.29663 0.074 0.51911 0.222 0.74158 0.296z"/>
  <path d="m32.852 6.6596c-1.9281 0.074-3.4112 0.444-4.3753 1.11-0.964 0.666-1.4831 1.702-1.4831 3.034 0 0.666 0.0741 1.332 0.2966 1.85 0.1483 0.518 0.4449 0.888 0.8157 1.258s0.8158 0.592 1.2607 0.74c0.5191 0.148 1.0382 0.222 1.5573 0.222s0.964-0.074 1.3348-0.148c0.3708-0.148 0.7416-0.296 1.0382-0.518 0.2967-0.222 0.5933-0.518 0.8158-0.814 0.2224-0.296 0.8899-0.962 0.8899-0.962v1.11c0 0.592 0.4449 1.036 1.0382 1.036h2.6696c0.1483 0 0.2225-0.074 0.2225-0.222v-0.666c0-0.074-0.0742-0.222-0.2225-0.222-0.2225 0-0.4449 0-0.5932-0.074-0.2225-0.074-0.3708-0.148-0.5191-0.296-0.1484-0.148-0.2225-0.37-0.2967-0.592-0.0741-0.296-0.0741-0.592-0.0741-0.888v-6.66c0-0.814-0.0742-1.48-0.2967-2.072-0.1483-0.518-0.4449-0.962-0.8898-1.406-0.3708-0.37-0.8899-0.592-1.4832-0.74s-1.2607-0.222-2.0764-0.222c-0.5933 0-1.1865 0.074-1.7798 0.148-0.5191 0.074-0.964 0.222-1.4831 0.444-0.3708 0.148-0.7416 0.444-0.9641 0.74-0.0741 0.37-0.1483 0.74-0.1483 1.184 0 0.592 0.1483 1.036 0.5191 1.258 0.2967 0.222 0.8158 0.37 1.409 0.37 0.0742 0 0.1483 0 0.1483-0.074 0.0742-0.074 0.0742-0.074 0.0742-0.148 0-0.296 0-0.592 0.0741-0.888 0.0742-0.296 0.1484-0.592 0.3708-0.888 0.1483-0.222 0.445-0.444 0.7416-0.592s0.6674-0.222 1.1865-0.222 0.9641 0.074 1.2607 0.222 0.5191 0.37 0.7416 0.666c0.0741 0.37 0.2224 0.666 0.2224 1.036 0.0742 0.444 0.0742 0.814 0.0742 1.258v1.332c0 0.148-0.0742 0.222-0.2225 0.222l-1.8539 0.074zm2.0764 3.034c0 0.51802-0.0742 1.036-0.2225 1.48s-0.3708 0.814-0.6674 1.11-0.6674 0.592-1.1124 0.74c-0.4449 0.148-0.8898 0.222-1.4089 0.222-0.6675 0-1.2607-0.222-1.5573-0.592-0.3708-0.37-0.5191-0.962-0.5191-1.776 0-0.444 0.0741-0.88802 0.2224-1.332 0.1483-0.37 0.3708-0.74 0.6674-0.962 0.2967-0.296 0.6675-0.444 1.1866-0.592s1.1123-0.222 1.7797-0.296l1.409-0.074c0.0742 0 0.1483 0 0.1483 0.074 0.0742 0.074 0.0742 0.074 0.0742 0.148v1.85z"/>
  <path d="m11.94 1.0367c0 0.444 0.3707 0.888 0.8157 0.888h0.0741c0.2225 0 0.445 0.148 0.6675 0.222 0.2224 0.148 0.3707 0.296 0.4449 0.518 0.0742 0.37 0.1483 0.666 0.1483 1.036v6.142c0 0.88803 0.0742 1.628 0.2966 2.294 0.2225 0.666 0.445 1.184 0.8158 1.554 0.3708 0.444 0.8157 0.74 1.3348 0.888 0.5933 0.222 1.1865 0.296 1.7798 0.296 0.3708 0 0.8157 0 1.1865-0.074 0.8157-0.148 1.5573-0.518 2.0764-1.036 0.2225-0.222 0.5933-0.666 0.8157-0.962 0 0 0.0742-0.074 0.1483 0l0.0742 0.074c0 0.962 0.8157 1.776 1.7798 1.776h2.4472c0.1483 0 0.2224-0.074 0.2224-0.222v-0.666c0-0.074-0.0741-0.222-0.2224-0.222-0.2225 0-0.5191 0-0.6674-0.074-0.2225 0-0.445-0.074-0.6675-0.222-0.2224-0.148-0.3707-0.296-0.4449-0.518-0.1483-0.222-0.1483-0.518-0.1483-0.888v-10.73c0-0.148-0.0742-0.222-0.2225-0.222h-4.1528c-0.1483 0-0.2225 0.074-0.2225 0.222 0 0.444 0.3708 0.888 0.8158 0.888h0.0741c0.2225 0 0.445 0.148 0.6674 0.222 0.2225 0.148 0.3708 0.37 0.445 0.592 0.1483 0.222 0.1483 0.592 0.1483 0.962v5.328c0 0.592-0.0742 1.11-0.2225 1.702-0.0741 0.444-0.2966 0.888-0.5932 1.332-0.2967 0.37-0.5933 0.666-0.9641 0.814-0.3708 0.222-0.8899 0.296-1.4831 0.296-0.5191 0-0.9641-0.074-1.2607-0.222s-0.5933-0.37-0.8157-0.666c-0.2225-0.37-0.3708-0.74-0.445-1.11-0.0741-0.518-0.1483-0.962-0.1483-1.48v-8.658c0-0.074 0-0.148-0.0742-0.148-0.0741-0.074-0.0741-0.074-0.1483-0.074h-4.1528c-0.1483 0-0.2224 0.074-0.2224 0.148z"/>
  <path d="m53.394 14.8c-0.2967 0.296-0.5191 0.592-0.7416 0.962-0.1483 0.37-0.2966 0.814-0.2966 1.332 0 1.184 0.4449 2.072 1.3348 2.738s2.2247 0.962 4.0045 0.962c1.1865 0 2.1506-0.148 3.0404-0.37 0.8899-0.222 1.5574-0.518 2.1506-0.962 0.5191-0.37 0.9641-0.888 1.2607-1.48 0.2966-0.666 0.4449-1.332 0.3708-1.998 0-0.518-0.0742-1.036-0.2225-1.554-0.1483-0.444-0.3708-0.888-0.7416-1.258s-0.8157-0.592-1.3348-0.814-1.1865-0.296-1.9281-0.296h-2.8921-0.6674c-0.1484 0-0.3708-0.074-0.5191-0.148-0.1484-0.074-0.2225-0.148-0.2967-0.296-0.0741-0.148-0.1483-0.296-0.1483-0.518 0-0.148 0-0.37 0.0742-0.518 0.0741-0.148 0.1483-0.296 0.2966-0.444 0.1483-0.14798 0.2225-0.22198 0.3708-0.36998 0.1483-0.074 0.2224-0.148 0.3708-0.222 0.0741 0 0.1483-0.074 0.2224 0h0.1484 0.3707 0.3708 0.3708c0.7416 0 1.4832-0.074 2.0023-0.296s1.0382-0.518 1.409-0.962c0.3707-0.37 0.6674-0.888 0.8898-1.406 0.2225-0.592 0.2967-1.184 0.2967-1.776 0-0.74-0.0742-1.332-0.2967-1.85-0.1483-0.37-0.3708-0.74-0.5932-1.11 0-0.074-0.0742-0.148 0-0.148 0-0.074 0.0741-0.074 0.1483-0.148s0.2225-0.074 0.2966-0.148c0.2225-0.074 0.3708-0.074 0.5933-0.074 0.1483 0 0.2966 0 0.4449 0.074 0.0742 0.074 0.2225 0.148 0.2225 0.222 0.0742 0.074 0.0742 0.148 0.1483 0.296v0.148c0 0.074 0.1483 0.222 0.2225 0.148 0.1483 0 0.2966-0.074 0.3708-0.074 0.1483-0.074 0.2966-0.148 0.4449-0.296 0.0742-0.148 0.2225-0.296 0.2225-0.444 0.0741 0.074 0.0741-0.148 0.0741-0.296s0-0.37-0.0741-0.518c-0.0742-0.148-0.1483-0.296-0.2966-0.444-0.1484-0.148-0.2967-0.222-0.445-0.296-0.2225-0.074-0.4449-0.148-0.6674-0.074-0.2966 0-0.5191 0.074-0.8157 0.148-0.2225 0.074-0.445 0.222-0.6674 0.37-0.2225 0.148-0.3708 0.296-0.5933 0.444-0.1483 0.074-0.2225 0.222-0.2966 0.296-0.0742 0.074-0.1484 0.074-0.2967 0s-0.2224-0.148-0.3708-0.222c-0.2224-0.074-0.4449-0.222-0.6674-0.296-0.2966-0.074-0.5191-0.148-0.8157-0.222s-0.5933-0.074-0.8899-0.074c-0.8157 0-1.4831 0.074-2.1505 0.296-0.5933 0.222-1.1124 0.518-1.4832 0.962-0.4449 0.444-0.7416 0.962-0.8899 1.48-0.2225 0.592-0.2966 1.258-0.2966 1.998 0 0.444 0.0741 0.814 0.1483 1.258 0.0742 0.37 0.2225 0.74 0.4449 1.11 0.2225 0.37 0.445 0.666 0.7416 0.888 0.2225 0.148 0.3708 0.296 0.5933 0.444 0.0741 0.074 0.1483 0.148 0.1483 0.222s0 0.148-0.0742 0.222c-0.3708 0.296-0.7415 0.592-0.8899 0.88798-0.2966 0.37-0.3707 0.814-0.3707 1.332 0 0.222 0.0741 0.518 0.1483 0.74 0.0741 0.222 0.2224 0.444 0.2966 0.592l0.4449 0.444c0.0742 0.074 0.1484 0.148 0.2225 0.148 0.0742 0 0.0742 0.074 0.0742 0.074 0 0.074-0.0742 0.074-0.0742 0.074-0.2966 0.074-0.6674 0.148-0.964 0.296-0.445 0.37-0.7416 0.592-1.0382 0.814zm3.1146-12.062c0.3708-0.592 0.964-0.814 1.7798-0.814 0.8157 0 1.4089 0.296 1.7797 0.814s0.5191 1.406 0.5191 2.59c0 0.518 0 0.962-0.1483 1.48-0.0741 0.37-0.2225 0.666-0.3708 1.036-0.1483 0.222-0.4449 0.444-0.7415 0.592-0.2967 0.148-0.6675 0.222-1.0382 0.222-0.8158 0-1.409-0.222-1.7798-0.74s-0.5191-1.332-0.5191-2.442c0-1.332 0.1483-2.22 0.5191-2.738zm-1.7798 12.95c0.1483-0.296 0.3708-0.518 0.5933-0.74 0.2966-0.148 0.5932-0.296 0.8899-0.37 0.3707-0.074 0.6674-0.074 1.0382-0.074h2.5213c0.3708 0 0.7416 0 1.1124 0.074 0.2966 0.074 0.5932 0.148 0.8157 0.296s0.3708 0.37 0.5191 0.592 0.1483 0.592 0.1483 0.962c0 0.444-0.0741 0.814-0.2225 1.258-0.1483 0.37-0.3707 0.74-0.7415 0.962-0.3708 0.296-0.8158 0.518-1.409 0.666-0.5933 0.148-1.3349 0.222-2.2989 0.222-0.6674 0-1.1865-0.074-1.6315-0.222-0.4449-0.148-0.7415-0.296-1.0382-0.518-0.2224-0.222-0.4449-0.518-0.5191-0.814-0.0741-0.37-0.1483-0.666-0.1483-1.036 0.0742-0.518 0.2225-0.962 0.3708-1.258z"/>
  <path d="m50.65 3.3298c-0.2225-0.592-0.5192-1.11-0.8899-1.554-0.3708-0.37-0.8158-0.74-1.3349-0.888-0.5932-0.222-1.1865-0.296-1.7797-0.296-0.3708 0-0.8158 0-1.1866 0.074-0.3707 0.074-0.7415 0.148-1.0382 0.37-0.3708 0.222-0.6674 0.444-0.964 0.74-0.1483 0.222-0.5191 0.592-0.7416 0.888 0 0.074-0.0741 0.074-0.1483 0.074s-0.0742-0.074-0.0742-0.148v-0.592c0-0.666-0.5191-1.184-1.1865-1.184h-3.1146c-0.1483 0-0.2224 0.074-0.2224 0.222 0 0.444 0.3707 0.888 0.8157 0.888h0.0741c0.2225 0.074 0.445 0.148 0.6675 0.222 0.2224 0.148 0.3707 0.296 0.4449 0.518 0.1483 0.222 0.1483 0.518 0.1483 0.888v10.73c0 0.148 0.0742 0.222 0.2225 0.222h4.1528c0.1483 0 0.2225-0.074 0.2225-0.222v-0.666c0-0.074-0.0742-0.222-0.2225-0.222-0.2225 0-0.5191 0-0.6674-0.074-0.2225 0-0.445-0.074-0.6674-0.222-0.2225-0.148-0.3708-0.296-0.445-0.518-0.1483-0.222-0.1483-0.518-0.1483-0.888v-5.254c0-0.518 0.0742-1.036 0.1483-1.554 0.0742-0.444 0.2966-0.888 0.5191-1.332 0.2225-0.37 0.5933-0.666 0.9641-0.888 0.3707-0.222 0.8898-0.37 1.4831-0.37 0.5191 0 0.9641 0.074 1.3348 0.222 0.3708 0.148 0.6675 0.37 0.8899 0.666 0.2225 0.296 0.3708 0.74 0.445 1.11 0.0741 0.518 0.1483 0.962 0.1483 1.48v8.658c0 0.148 0.0741 0.222 0.2225 0.222h4.0786c0.1483 0 0.2225-0.074 0.2225-0.222v-0.666c0-0.074-0.0742-0.222-0.2225-0.222-0.2225 0-0.5191 0-0.6674-0.074-0.2225 0-0.4449-0.148-0.5933-0.222-0.1483-0.148-0.2966-0.37-0.3708-0.592-0.0741-0.222-0.1483-0.592-0.1483-0.962v-6.068c-0.0741-0.888-0.2224-1.628-0.3707-2.294z"/>
  <path d="m11.865 30.192c-0.1483-0.444-0.3708-0.888-0.7416-1.184-0.3708-0.37-0.8157-0.666-1.3348-0.814-0.5191-0.222-1.1865-0.296-1.9281-0.296h-2.8921-0.59326c-0.14831 0-0.37079-0.074-0.5191-0.148-0.14832-0.074-0.22247-0.148-0.29663-0.296s-0.14831-0.296-0.14831-0.518c0-0.148 0-0.37 0.07415-0.518 0.07416-0.148 0.14832-0.296 0.29663-0.444 0.14832-0.148 0.22247-0.222 0.37079-0.37 0.14831-0.074 0.29663-0.222 0.44494-0.296h0.29663 0.37079 0.37078 0.37079c0.74157 0 1.4832-0.074 2.0022-0.296s1.0382-0.518 1.409-0.888c0.37078-0.37 0.66742-0.888 0.88992-1.406 0.2224-0.592 0.2966-1.184 0.2966-1.776 0-0.74-0.0742-1.332-0.2966-1.85-0.2225-0.518-0.51914-1.036-0.88992-1.48-0.07416-0.074-0.14832-0.148-0.22247-0.222-0.07416-0.074-0.07416-0.148 0-0.222 0.07415-0.074 0.14831-0.222 0.22247-0.296 0.14831-0.148 0.29663-0.296 0.44494-0.37 0.14828-0.074 0.29668-0.148 0.37078-0.148 0.1483 0 0.2225 0 0.2966 0.074 0.0742 0.074 0.1484 0.074 0.2225 0.148l0.0742 0.074c0.0741 0.074 0.2224 0.074 0.2966 0.074 0.1483-0.074 0.2225-0.148 0.2966-0.296 0.0742-0.148 0.1483-0.296 0.2225-0.444v-0.518c0-0.148-0.0742-0.37-0.2225-0.518-0.0741-0.148-0.2224-0.296-0.2966-0.37-0.1483-0.074-0.2966-0.222-0.4449-0.222-0.1484-0.074-0.3708-0.074-0.5191 0-0.22252 0.074-0.44499 0.148-0.59331 0.222-0.22247 0.148-0.44494 0.296-0.59326 0.518-0.14831 0.222-0.29663 0.444-0.44494 0.666-0.07416 0.222-0.22247 0.444-0.29663 0.666v0.074c0 0.074-0.07416 0.074-0.07416 0.148h-0.14831c-0.07416 0-0.14832-0.074-0.29663-0.074-0.29663-0.074-0.5191-0.148-0.81573-0.222s-0.59326-0.074-0.88989-0.074c-0.81573 0-1.4831 0.074-2.0764 0.296s-1.1124 0.518-1.4832 0.962-0.74157 0.962-0.88989 1.48c-0.22247 0.592-0.29663 1.258-0.29663 1.998 0 0.444 0.07416 0.814 0.14832 1.258 0.07416 0.37 0.22247 0.74 0.44494 1.11s0.44495 0.666 0.74158 0.888c0.29662 0.296 0.59325 0.444 0.96404 0.592-0.59326 0.37-1.0382 0.74-1.2607 1.11-0.5191 0.666-0.59326 1.48-0.37079 2.146 0.07416 0.222 0.22247 0.444 0.29663 0.592 0.14831 0.148 0.29663 0.296 0.44494 0.444 0.14832 0.148 0.29663 0.222 0.5191 0.296-0.44494 0.074-0.81573 0.222-1.1865 0.37-0.37079 0.148-0.74158 0.37-1.0382 0.666-0.29663 0.296-0.5191 0.592-0.66742 0.962-0.22247 0.444-0.29663 0.888-0.29663 1.332 0 1.184 0.44494 2.072 1.3348 2.738 0.88989 0.666 2.2247 0.962 4.0045 0.962 1.1865 0 2.1506-0.148 3.0404-0.37 0.81573-0.222 1.5573-0.518 2.1505-0.962 0.5191-0.37 0.9641-0.888 1.2607-1.48s0.445-1.332 0.3708-1.998c-0.0742-0.444-0.1483-0.962-0.2966-1.48zm-7.7866-11.766c0.37079-0.592 0.96405-0.814 1.7798-0.814s1.409 0.296 1.7798 0.814c0.37079 0.518 0.5191 1.406 0.5191 2.59 0 0.518 0 0.962-0.14831 1.48-0.07416 0.37-0.22247 0.666-0.37079 0.962-0.14831 0.222-0.44494 0.444-0.66741 0.592-0.29663 0.148-0.66742 0.222-1.0382 0.222-0.81573 0-1.409-0.222-1.7798-0.74-0.44495-0.592-0.59326-1.406-0.59326-2.516 0-1.184 0.14832-1.998 0.5191-2.59zm5.7101 14.948c-0.14831 0.37-0.37078 0.74-0.74157 0.962-0.37079 0.296-0.81573 0.518-1.409 0.666s-1.3348 0.222-2.2989 0.222c-0.66742 0-1.1865-0.074-1.6315-0.222-0.44495-0.148-0.74158-0.296-1.0382-0.518-0.22247-0.222-0.44494-0.518-0.5191-0.814-0.07416-0.37-0.14831-0.666-0.14831-1.036 0-0.518 0.07415-0.962 0.22247-1.258 0.14831-0.296 0.37079-0.518 0.66741-0.74 0.29663-0.148 0.59326-0.296 0.88989-0.37 0.37079-0.074 0.66742-0.074 1.0382-0.074h2.5955c0.37079 0 0.74157 0 1.1124 0.074 0.29663 0.074 0.59326 0.148 0.81573 0.296s0.37079 0.37 0.5191 0.592c0.14828 0.222 0.14828 0.592 0.14828 0.962 0 0.444-0.07412 0.888-0.22244 1.258z"/>
  <path d="m11.94 16.798c0 0.444 0.3707 0.888 0.8157 0.888h0.0741c0.2225 0 0.445 0.148 0.6675 0.222 0.2224 0.148 0.3707 0.296 0.4449 0.518 0.1483 0.222 0.1483 0.518 0.1483 0.888v6.142c0 0.888 0.0742 1.628 0.2966 2.294 0.2225 0.666 0.445 1.184 0.8158 1.554 0.3708 0.444 0.8157 0.74 1.3348 0.888 0.5933 0.222 1.1865 0.296 1.7798 0.296 0.3708 0 0.8157 0 1.1865-0.074 0.8157-0.148 1.5573-0.518 2.0764-1.036 0.2225-0.222 0.5933-0.666 0.8157-0.962 0 0 0.0742-0.074 0.1483 0l0.0742 0.074c0 0.444 0.1483 0.962 0.5191 1.258 0.2966 0.37 0.8157 0.518 1.2607 0.518h2.4472c0.1483 0 0.2224-0.074 0.2224-0.222v-0.666c0-0.074-0.0741-0.222-0.2224-0.222-0.2225 0-0.5191 0-0.6674-0.074-0.2225 0-0.445-0.074-0.6675-0.222-0.2224-0.148-0.3707-0.296-0.4449-0.518-0.1483-0.222-0.1483-0.518-0.1483-0.888v-10.656c0-0.074 0-0.148-0.0742-0.148-0.0741-0.074-0.0741-0.074-0.1483-0.074h-4.1528c-0.0742 0-0.1483 0-0.1483 0.074-0.0742 0.074-0.0742 0.074-0.0742 0.148 0 0.444 0.3708 0.888 0.8158 0.888h0.0741c0.2225 0 0.445 0.148 0.6674 0.222 0.2225 0.148 0.3708 0.37 0.445 0.592 0.1483 0.222 0.1483 0.592 0.1483 0.962v5.328c0 0.592-0.0742 1.11-0.2225 1.702-0.0741 0.444-0.2966 0.888-0.5932 1.332-0.2967 0.37-0.5933 0.666-0.9641 0.814-0.3708 0.222-0.8899 0.296-1.4831 0.296-0.5191 0-0.9641-0.074-1.2607-0.222s-0.5933-0.37-0.8157-0.666c-0.2225-0.37-0.3708-0.74-0.445-1.11-0.0741-0.518-0.1483-0.962-0.1483-1.48v-8.658c0-0.148-0.0742-0.222-0.2225-0.222h-4.1528c-0.1483 0-0.2224 0.074-0.2224 0.222z"/>
  <path d="m36.634 16.797c-0.4449-0.296-1.1124-0.518-2.0764-0.518-0.5933 0-1.0382 0.074-1.409 0.222s-0.6674 0.37-0.964 0.592c-0.2225 0.296-0.445 0.592-0.6675 0.888-0.0741 0.148-0.2224 0.444-0.3707 0.666 0 0.074-0.0742 0.074-0.1484 0.074-0.0741 0-0.0741-0.074-0.0741-0.148v-0.962c0-0.592-0.5191-1.11-1.1124-1.11h-3.5595c-0.1483 0-0.2225 0.074-0.2225 0.222 0 0.444 0.3708 0.888 0.8157 0.888h0.445c0.2224 0 0.4449 0.148 0.6674 0.222 0.2225 0.148 0.3708 0.296 0.4449 0.518 0.1483 0.222 0.1483 0.518 0.1483 0.888v10.73c0 0.148 0.0742 0.222 0.2225 0.222h4.7461c0.1483 0 0.2225-0.074 0.2225-0.222v-0.666c0-0.148-0.0742-0.222-0.2225-0.222h-0.5191c-0.2966 0-0.5191 0-0.8157-0.074-0.2225 0-0.445-0.148-0.6675-0.222-0.2224-0.148-0.3707-0.296-0.4449-0.518-0.1483-0.222-0.1483-0.518-0.1483-0.888v-4.07c0-0.296 0-0.666 0.0741-1.11 0-0.37 0.0742-0.814 0.1484-1.184 0.0741-0.37 0.1483-0.814 0.2966-1.184s0.2966-0.666 0.4449-1.036c0.1483-0.296 0.3708-0.518 0.6674-0.74 0.2225-0.148 0.5191-0.296 0.8158-0.296 0.5191 0 0.8157 0.148 1.0382 0.444 0.1483 0.296 0.2966 0.74 0.2966 1.332 0 0.148 0.0742 0.222 0.2225 0.222 0.2966 0 0.5932-0.074 0.8899-0.148 0.2966-0.074 0.5191-0.222 0.7415-0.37 0.2225-0.148 0.2967-0.37 0.445-0.592 0.0741-0.222 0.1483-0.518 0.1483-0.74 0.1483-0.296-0.0742-0.74-0.5191-1.11z"/>
  <path d="m52.726 29.304c-0.2225 0-0.445 0-0.5191-0.074-0.2225 0-0.445-0.074-0.6675-0.222-0.2224-0.148-0.3707-0.296-0.4449-0.518-0.1483-0.222-0.1483-0.518-0.1483-0.888v-10.804c0-0.074 0-0.148-0.0742-0.148-0.0741-0.074-0.0741-0.074-0.1483-0.074h-4.1528c-0.1483 0-0.2225 0.074-0.2225 0.222 0 0.444 0.3708 0.888 0.8158 0.888h0.0741c0.2225 0 0.445 0.148 0.6674 0.222 0.2225 0.148 0.3708 0.37 0.445 0.592 0.1483 0.222 0.1483 0.592 0.1483 0.962v5.328c0 0.592-0.0742 1.11-0.2225 1.702-0.0741 0.444-0.2966 0.888-0.5932 1.332-0.2967 0.37-0.5933 0.666-0.9641 0.814-0.3708 0.222-0.8899 0.296-1.4831 0.296-0.5191 0-0.9641-0.074-1.2607-0.222s-0.5933-0.37-0.8157-0.666c-0.2225-0.37-0.3708-0.74-0.445-1.11-0.0741-0.518-0.1483-0.962-0.1483-1.48v-8.658c0-0.148-0.0742-0.222-0.2225-0.222h-4.1528c-0.1483 0-0.2224 0.074-0.2224 0.222 0 0.444 0.3707 0.888 0.8157 0.888h0.0741c0.2225 0 0.445 0.148 0.6675 0.222 0.2224 0.148 0.3707 0.296 0.4449 0.518 0.1483 0.222 0.1483 0.518 0.1483 0.888v6.142c0 0.888 0.0742 1.628 0.2966 2.294 0.2225 0.666 0.445 1.184 0.8158 1.554 0.3708 0.444 0.8157 0.74 1.3348 0.888 0.5933 0.222 1.1865 0.296 1.7798 0.296 0.3708 0 0.8157 0 1.1865-0.074 0.8157-0.148 1.5573-0.518 2.0764-1.036 0.2225-0.222 0.5933-0.666 0.8157-0.962 0 0 0.0742-0.074 0.1483 0l0.0742 0.074c0 0.444 0.1483 0.962 0.5191 1.258 0.2966 0.37 0.8157 0.518 1.2607 0.518h13.942c0.0741 0 0.1483-0.074 0.1483-0.148v-0.74c0-0.074-0.0742-0.148-0.1483-0.148l-11.643 0.074z"/>
 </g>
</svg>
