<?xml version="1.0" encoding="UTF-8"?>
<!DOCTYPE svg PUBLIC "-//W3C//DTD SVG 1.1//EN" "http://www.w3.org/Graphics/SVG/1.1/DTD/svg11.dtd">
<!-- Creator: CorelDRAW 2019 (64-Bit) -->
<svg xmlns="http://www.w3.org/2000/svg" xml:space="preserve" width="1080px" height="240px" version="1.1" style="shape-rendering:geometricPrecision; text-rendering:geometricPrecision; image-rendering:optimizeQuality; fill-rule:evenodd; clip-rule:evenodd"
viewBox="0 0 1080 240.02"
 xmlns:xlink="http://www.w3.org/1999/xlink"
 xmlns:xodm="http://www.corel.com/coreldraw/odm/2003">
 <defs>
  <style type="text/css">
   <![CDATA[
    .fil2 {fill:#0A7FA7}
    .fil1 {fill:#189CC2}
    .fil3 {fill:#1BA0E1}
    .fil0 {fill:#434343;fill-rule:nonzero}
   ]]>
  </style>
 </defs>
 <g id="Layer_x0020_1">
  <metadata id="CorelCorpID_0Corel-Layer"/>
  <g id="_2150079421520">
   <path class="fil0" d="M31.97 230.54c-9.36,-6.53 -16.88,-18.2 -16.88,-38.91l0 -54.87 -11.05 0 -4.04 0 0 -4.04 0 -12.96 0 -4.05 4.04 0 11.28 0 0 -28.48 0 -4.04 4.04 0 15.32 0 4.04 0 0 4.04 0 28.48 24.99 0 4.05 0 0 4.05 0 12.96 0 4.04 -4.05 0 -24.99 0 0 53.27c0,9.62 2.37,15.74 5.69,19.59 4.77,5.55 11.79,6.62 16.33,6.62 0.78,0 1.57,0 2.19,-0.04l0.02 0c0.69,-0.05 1.41,-0.14 2.18,-0.31l4.91 -1.08 0 5.02 0 13.87 0 3.42 -3.39 0.56c-0.88,0.15 -2.06,0.29 -3.44,0.39 -1.18,0.08 -2.48,0.13 -3.84,0.13 -7.18,0 -18.12,-1.19 -27.4,-7.66zm72.89 6.75l-15.54 0 -4.04 0 0 -4.04 0 -114.4 0 -4.05 4.04 0 15.32 0 4.04 0 0 4.05 0 12.54c2.27,-3.12 4.84,-5.95 7.69,-8.37 6.8,-5.8 15.12,-9.35 24.62,-9.35 1.15,0 2.42,0.07 3.7,0.21 1.19,0.13 2.36,0.33 3.43,0.59l3.08 0.77 0 3.15 0 15.24 0 5.59 -5.3 -1.75c-0.05,-0.02 -0.58,-0.07 -1.36,-0.13 -0.93,-0.07 -2.05,-0.12 -3.1,-0.12 -9.98,0 -17.4,5.01 -22.59,12.32l-0.01 0c-6.85,9.68 -9.93,23.33 -9.93,35.26l0 48.45 0 4.04 -4.05 0zm62.95 -7.87c-7.34,-6.31 -12.12,-15.3 -12.12,-26.88 0,-20.95 13.21,-31.99 29.43,-37.78 15.35,-5.47 33.31,-6.06 44.57,-6.06l2.81 0c-0.14,-8.72 -2.34,-14.66 -5.98,-18.47 -4.25,-4.42 -10.73,-6.2 -18.32,-6.2 -5.33,0 -10.65,0.92 -15.7,2.61 -5.25,1.75 -10.22,4.31 -14.62,7.52l-3.57 2.6 -2.26 -3.78 -7.09 -11.83 -1.76 -2.94 2.62 -2.21c4.98,-4.21 11.84,-7.72 19.48,-10.16 7.51,-2.39 15.8,-3.77 23.82,-3.77 15,0 26.74,4.25 34.81,12.5 8,8.17 12.21,20.07 12.21,35.44l0 73.24 0 4.04 -4.04 0 -14.86 0 -4.05 0 0 -4.04 0 -8.88c-2.68,3.01 -5.79,5.74 -9.26,8.03 -7.1,4.7 -15.71,7.62 -25.33,7.62 -11.28,0 -22.62,-3.57 -30.79,-10.6zm29.35 -47c-9.76,2.88 -17.61,8.34 -17.61,18.76 0,4.61 2.03,9.34 6.05,12.74 3.6,3.04 8.84,5.05 15.74,5.05 8.95,0 16.22,-4.29 21.46,-10.65 6.29,-7.64 9.71,-18.2 9.71,-28.07l0 -1.18 -2.59 0c-8.69,0 -21.94,0.16 -32.76,3.35zm137.24 54.87l-16.92 0 -2.75 0 -1.01 -2.59 -44.35 -114.4 -2.13 -5.5 5.89 0 16.69 0 2.78 0 0.99 2.62 31.78 83.93 0.02 0.05c0.15,0.4 0.29,0.82 0.43,1.25 0.15,-0.43 0.3,-0.85 0.45,-1.25l0.01 -0.05 31.78 -83.93 0.99 -2.62 2.78 0 16.46 0 5.88 0 -2.1 5.48 -43.89 114.4 -1 2.61 -2.78 0zm71.33 -15.43c-11.37,-11.28 -18.22,-27.11 -18.22,-45.7 0,-19.23 6.46,-34.81 16.9,-45.82 11.19,-11.81 26.9,-18.27 44.07,-18.27 16.32,0 28.9,5.99 37.65,15.61 9.57,10.51 14.41,25.29 14.41,41.2 0,1.26 -0.07,2.67 -0.16,4.12 -0.08,1.1 -0.2,2.54 -0.33,3.98l-0.34 3.68 -3.68 0 -83.97 0c1.05,10.89 5.17,19.54 11.27,25.72 7.38,7.5 17.74,11.45 29.04,11.45 5.74,0 11.59,-1.19 17.08,-3.33 5.61,-2.19 10.84,-5.36 15.19,-9.27l3.65 -3.27 2.52 4.2 7.08 11.83 1.7 2.83 -2.44 2.22c-5.72,5.21 -13,9.44 -20.84,12.38 -7.89,2.95 -16.36,4.6 -24.4,4.6 -18.39,0 -34.6,-6.69 -46.18,-18.16zm18.68 -80.27c-5.04,4.52 -8.92,10.79 -10.98,18.7l62.93 0c-0.98,-8.21 -3.86,-14.52 -7.98,-18.99 -5.19,-5.63 -12.45,-8.4 -20.36,-8.4 -8.94,0 -17.25,2.98 -23.61,8.69zm108.77 91.25c-6.42,-4.55 -11.47,-12.58 -11.47,-26.66l0 -132.82 0 -4.05 4.04 0 15.55 0 4.04 0 0 4.05 0 129.41c0,6.25 1.27,9.64 3.06,11.38 1.55,1.51 3.82,1.86 5.93,1.86 0.54,0 1.2,0 1.49,-0.01 0.48,-0.02 1,-0.07 1.52,-0.15l4.69 -0.78 0 4.76 0 13.87 0 3.42 -3.39 0.56c-0.73,0.12 -1.61,0.25 -2.72,0.35 -1.15,0.1 -2.38,0.17 -3.65,0.17 -5.25,0 -12.74,-0.86 -19.09,-5.36zm55.65 -11.53c-11.55,-11.53 -18.65,-27.56 -18.65,-45.83 0,-17.95 7.11,-33.71 18.67,-45.04 11.71,-11.47 27.95,-18.37 45.96,-18.37 18.01,0 34.33,6.91 46.09,18.39 11.6,11.33 18.76,27.08 18.76,45.02 0,18.26 -7.14,34.27 -18.73,45.8 -11.76,11.7 -28.09,18.74 -46.12,18.74 -18.03,0 -34.28,-7.02 -45.98,-18.71zm17.13 -75.3c-7.24,7.38 -11.69,17.69 -11.69,29.47 0,12.18 4.43,22.7 11.63,30.19 7.33,7.63 17.55,12.16 28.91,12.16 11.37,0 21.67,-4.54 29.05,-12.19 7.24,-7.49 11.71,-18 11.71,-30.16 0,-11.75 -4.5,-22.05 -11.77,-29.43 -7.38,-7.5 -17.65,-12.02 -28.99,-12.02 -11.32,0 -21.52,4.51 -28.85,11.98zm134.24 91.28l-15.55 0 -4.04 0 0 -4.04 0 -159.89 0 -4.05 4.04 0 15.55 0 4.04 0 0 4.05 0 85.11 12.52 0 33.07 -42.12 1.22 -1.55 1.96 0 18.75 0 8.42 0 -5.28 6.57 -38.3 47.68 42.59 61.91 4.36 6.33 -7.68 0 -18.74 0 -2.15 0 -1.2 -1.8 -36.98 -55.29 -12.56 0 0 53.05 0 4.04 -4.04 0zm94.49 -7.87c-7.33,-6.31 -12.12,-15.3 -12.12,-26.88 0,-20.95 13.21,-31.99 29.44,-37.78 15.34,-5.47 33.31,-6.06 44.57,-6.06l2.8 0c-0.13,-8.72 -2.33,-14.66 -5.98,-18.47 -4.25,-4.42 -10.72,-6.2 -18.31,-6.2 -5.34,0 -10.66,0.92 -15.71,2.61 -5.25,1.75 -10.21,4.31 -14.62,7.52l-3.56 2.6 -2.27 -3.78 -7.08 -11.83 -1.76 -2.94 2.61 -2.21c4.98,-4.21 11.84,-7.72 19.49,-10.16 7.51,-2.39 15.79,-3.77 23.81,-3.77 15,0 26.74,4.25 34.82,12.5 8,8.17 12.2,20.07 12.2,35.44l0 73.24 0 4.04 -4.04 0 -14.86 0 -4.04 0 0 -4.04 0 -8.88c-2.69,3.01 -5.79,5.74 -9.26,8.03 -7.1,4.7 -15.72,7.62 -25.34,7.62 -11.28,0 -22.62,-3.57 -30.79,-10.6zm29.36 -47c-9.76,2.88 -17.61,8.34 -17.61,18.76 0,4.61 2.02,9.34 6.04,12.74 3.6,3.04 8.85,5.05 15.75,5.05 8.95,0 16.22,-4.29 21.45,-10.65 6.29,-7.64 9.71,-18.2 9.71,-28.07l0 -1.18 -2.59 0c-8.69,0 -21.94,0.16 -32.75,3.35z"/>
   <path class="fil1" d="M1012.55 126.76c0.13,-0.09 0.27,-0.16 0.4,-0.25 -6.16,-18.42 19.48,-49.56 67.05,-101.64 -38.46,4.72 -68.21,14.49 -89.25,29.29 2.05,30.18 9.32,54.38 21.8,72.6z"/>
   <path class="fil2" d="M1012.55 126.76c0.13,-0.09 0.27,-0.16 0.4,-0.25 -0.21,-0.62 -0.37,-1.26 -0.51,-1.91 -6.01,-22.82 -8.44,-49.18 -7.3,-79.09 -5.18,2.66 -9.97,5.54 -14.39,8.65 2.05,30.18 9.31,54.38 21.8,72.6z"/>
   <path class="fil3" d="M1028.38 153.17c10.16,5.2 18.57,7.89 26.03,6.6 -50.12,-19.64 -70.92,-72.9 -62.41,-159.77 -18.01,3.54 -32.62,11.77 -42.8,25.5 -8.86,11.95 -6.02,27.15 1.25,47.43 0.98,2.72 2.15,17.38 -3.92,22.83 -2.23,2 -5.82,0.41 -8.92,-1.61 -10.65,-6.05 -19.51,-5.99 -26.57,0.18 -19.44,-3.27 -33.53,-5.05 -42.26,-5.35 12.45,3.92 26.83,7.95 42.98,12.66 6.89,2.01 12.81,6.74 17.47,13.91 9.54,14.66 36.58,22.62 62.77,26.39 9.83,1.41 23.41,4.6 36.38,11.23z"/>
  </g>
 </g>
</svg>
